<svg width="166" height="58" viewBox="0 0 166 58" fill="none" xmlns="http://www.w3.org/2000/svg">
<path d="M55.9366 22.5691C55.0624 23.4274 53.8283 23.8312 52.1829 23.8312C50.5374 23.8312 49.3033 23.4274 48.4291 22.5691C47.2979 21.5089 46.6808 19.9439 46.6808 17.975C46.6808 15.9556 47.2979 14.3906 48.4291 13.3809C49.3033 12.5227 50.5374 12.1188 52.1829 12.1188C53.8283 12.1188 55.0624 12.5227 55.9366 13.3809C57.0678 14.3906 57.6849 15.9556 57.6849 17.975C57.6335 19.9439 57.0678 21.4585 55.9366 22.5691ZM54.394 20.8526C54.9596 20.1459 55.2167 19.1866 55.2167 17.975C55.2167 16.7634 54.9596 15.7032 54.394 15.0974C53.8283 14.3906 53.1084 14.0877 52.1314 14.0877C51.1545 14.0877 50.4346 14.3906 49.8689 15.0974C49.3033 15.8042 49.0462 16.7634 49.0462 17.975C49.0462 19.2371 49.3033 20.2468 49.8689 20.8526C50.4346 21.5594 51.1545 21.8623 52.1314 21.8623C53.1084 21.8623 53.8283 21.5594 54.394 20.8526Z" fill="black"></path>
<path d="M58.5897 12.1188H60.9283V19.1052C60.9283 19.8757 61.0278 20.4922 61.1771 20.8004C61.4259 21.4682 62.0727 21.7764 62.9684 21.7764C63.9138 21.7764 64.5109 21.4682 64.7597 20.8004C64.9089 20.4408 65.0085 19.8757 65.0085 19.1052V12.1188H67.3471V19.1565C67.3471 20.3381 67.1978 21.3141 66.7997 21.9819C66.1031 23.2148 64.8592 23.8312 62.9684 23.8312C61.0776 23.8312 59.7341 23.2148 59.0375 21.9819C58.6892 21.3141 58.4902 20.3381 58.4902 19.1565V12.1188H58.5897Z" fill="black"></path>
<path d="M77.5458 12.1188V14.1376H74.168V23.5589H71.7984V14.1376H68.4205V12.1188H77.5458Z" fill="black"></path>
<path d="M55.9366 37.0047C55.0624 37.8629 53.8283 38.2668 52.1829 38.2668C50.5374 38.2668 49.3033 37.8629 48.4291 37.0047C47.2979 35.9445 46.6808 34.3795 46.6808 32.4106C46.6808 30.3912 47.2979 28.8261 48.4291 27.8164C49.3033 26.9582 50.5374 26.5543 52.1829 26.5543C53.8283 26.5543 55.0624 26.9582 55.9366 27.8164C57.0678 28.8261 57.6849 30.3912 57.6849 32.4106C57.6335 34.3795 57.0678 35.9445 55.9366 37.0047ZM54.394 35.2882C54.9596 34.5814 55.2167 33.6222 55.2167 32.4106C55.2167 31.1989 54.9596 30.1387 54.394 29.5329C53.8283 28.8261 53.1084 28.5232 52.1314 28.5232C51.1545 28.5232 50.4346 28.8261 49.8689 29.5329C49.3033 30.2397 49.0462 31.1989 49.0462 32.4106C49.0462 33.6727 49.3033 34.6824 49.8689 35.2882C50.4346 35.995 51.1545 36.2979 52.1314 36.2979C53.1084 36.2979 53.8283 35.995 54.394 35.2882Z" fill="black"></path>
<path d="M58.4902 26.5543H66.5419V28.6156H60.8344V31.2437H65.8794V33.2019H60.8344V37.9944H58.4902V26.5543Z" fill="black"></path>
<path d="M77.5459 26.5543V28.6156H74.3491V37.9944H72.1065V28.6156H68.9574V26.5543H77.5459Z" fill="black"></path>
<path d="M78.8879 37.9944V26.5543H81.1767V30.9345H85.4559V26.5543H87.7448V37.9944H85.4559V32.8927H81.1767V37.9944H78.8879Z" fill="black"></path>
<path d="M97.1512 28.6156H91.1188V31.0376H96.64V32.9958H91.1188V35.9331H97.4068V37.9944H88.8183V26.5543H97.1001V28.6156H97.1512Z" fill="black"></path>
<path d="M48.6442 48.9937C48.6938 49.5626 48.8426 49.9246 49.041 50.1315C49.3881 50.6487 50.0824 50.8555 50.9751 50.8555C51.5702 50.8555 51.967 50.8038 52.3638 50.7004C53.0085 50.4935 53.3556 50.028 53.3556 49.4074C53.3556 49.0454 53.2069 48.7351 52.8597 48.5282C52.5621 48.3213 52.0166 48.1662 51.3223 47.9593L50.132 47.7007C48.9914 47.4421 48.1483 47.1318 47.7019 46.8215C46.958 46.2526 46.6108 45.4251 46.6108 44.339C46.6108 43.3047 46.958 42.4772 47.7019 41.7531C48.4458 41.0808 49.4873 40.7188 50.9255 40.7188C52.0662 40.7188 53.1077 41.0291 53.9012 41.7014C54.7443 42.3737 55.141 43.3047 55.2402 44.4942H53.0085C52.9589 43.7701 52.7109 43.3047 52.1158 42.9944C51.7686 42.8392 51.2727 42.7358 50.7271 42.7358C50.0824 42.7358 49.6361 42.8392 49.2393 43.0978C48.8426 43.3564 48.6938 43.7184 48.6938 44.1322C48.6938 44.4942 48.8426 44.8562 49.2393 45.0631C49.4377 45.1665 49.9832 45.3217 50.7271 45.5803L52.6613 46.0975C53.5044 46.3043 54.1491 46.6146 54.5459 46.9249C55.1906 47.4938 55.5378 48.2179 55.5378 49.304C55.5378 50.3901 55.1906 51.2176 54.3971 51.9416C53.6036 52.6657 52.5125 52.976 51.0743 52.976C49.5865 52.976 48.4954 52.6657 47.6523 51.9416C46.8092 51.2693 46.4125 50.2866 46.4125 49.1488H48.5946V48.9937H48.6442Z" fill="black"></path>
<path d="M60.145 41.2632H62.7908L66.8103 52.7033H64.2663L63.5031 50.3328H59.331L58.5678 52.7033H56.0746L60.145 41.2632ZM59.9924 48.3746H62.8925L61.4679 43.8913L59.9924 48.3746Z" fill="black"></path>
<path d="M68.1522 41.2632H70.4772L74.6528 49.2506V41.2632H76.7407V52.7033H74.5105L70.24 44.6128V52.7033H68.1522V41.2632Z" fill="black"></path>
<path d="M84.5628 41.5197C85.3665 41.7762 86.0196 42.2892 86.4717 43.0074C86.8233 43.5717 87.1247 44.1873 87.2754 44.8542C87.4261 45.5212 87.4763 46.1368 87.4763 46.7524C87.4763 48.2914 87.1749 49.5226 86.5721 50.5999C85.7684 52.0364 84.5125 52.7033 82.8548 52.7033H78.0826V41.2632H82.8548C83.5581 41.2632 84.1107 41.3658 84.5628 41.5197ZM80.2929 43.2639V50.6512H82.4027C83.5079 50.6512 84.2614 50.0869 84.7135 49.0096C84.9144 48.394 85.0651 47.7271 85.0651 46.855C85.0651 45.7264 84.9144 44.8029 84.5125 44.1873C84.1609 43.5717 83.4576 43.2639 82.4027 43.2639H80.2929Z" fill="black"></path>
<path d="M97.1177 42.4538C97.4274 42.9714 97.6855 43.5408 97.6855 44.2138C97.6855 44.9385 97.5306 45.4562 97.1177 45.922C96.9113 46.1291 96.6016 46.3362 96.2403 46.595C96.8597 46.802 97.2726 47.1644 97.5307 47.5785C97.7887 47.9926 97.9436 48.6138 97.9436 49.2868C97.9436 49.9597 97.7887 50.5809 97.4274 51.0986C97.221 51.4609 96.9113 51.7715 96.6016 51.9786C96.2403 52.2374 95.7758 52.4962 95.3113 52.548C94.7951 52.6515 94.279 52.7033 93.6596 52.7033H88.5499V41.2632H94.0725C95.5693 41.3149 96.55 41.6773 97.1177 42.4538ZM90.9241 43.282V45.8185H93.7112C94.2274 45.8185 94.5887 45.715 94.8983 45.5597C95.208 45.4044 95.3113 44.9903 95.3113 44.5762C95.3113 44.0067 95.1048 43.6961 94.6919 43.5408C94.3822 43.4373 93.8661 43.3856 93.2983 43.3856H90.8209V43.282H90.9241ZM90.9241 47.6821V50.7362H93.7112C94.2274 50.7362 94.5887 50.6844 94.8467 50.5291C95.3629 50.2703 95.6209 49.8044 95.6209 49.0797C95.6209 48.4585 95.4145 48.0962 94.8983 47.8891C94.6403 47.7856 94.2274 47.7338 93.7628 47.6821H90.9241Z" fill="black"></path>
<path d="M107.779 51.6552C106.926 52.5533 105.722 52.976 104.117 52.976C102.511 52.976 101.307 52.5533 100.454 51.6552C99.3508 50.5457 98.7488 48.9079 98.7488 46.8474C98.7488 44.7341 99.3508 43.0962 100.454 42.0396C101.307 41.1414 102.511 40.7188 104.117 40.7188C105.722 40.7188 106.926 41.1414 107.779 42.0396C108.882 43.0962 109.484 44.7341 109.484 46.8474C109.484 48.9079 108.882 50.5457 107.779 51.6552ZM106.324 49.8588C106.876 49.1192 107.127 48.1154 107.127 46.8474C107.127 45.5794 106.876 44.4699 106.324 43.8359C105.772 43.0962 105.07 42.7792 104.117 42.7792C103.163 42.7792 102.461 43.0962 101.909 43.8359C101.357 44.5756 101.107 45.5794 101.107 46.8474C101.107 48.1682 101.357 49.2248 101.909 49.8588C102.461 50.5985 103.163 50.9155 104.117 50.9155C105.07 50.9155 105.822 50.5985 106.324 49.8588Z" fill="black"></path>
<path d="M111.623 52.7033H108.948L112.466 46.855L109.096 41.2632H111.821L113.754 44.9568L115.736 41.2632H118.362L115.042 46.8037L118.61 52.7033H115.835L113.754 48.8557L111.623 52.7033Z" fill="black"></path>
<path d="M118.61 4.21924H46.6808V6.94307H118.61V4.21924Z" fill="black"></path>
</svg>