<svg width="183" height="34" viewBox="0 0 183 34" fill="none" xmlns="http://www.w3.org/2000/svg">
<path d="M21.3104 24.5256L15.9426 8.60397H13.6453L8.27747 24.5256H11.1206L12.6451 20.494H17.0127L18.4673 24.5256H21.3104ZM14.7826 12.2659L16.5088 17.9742H13.1222L14.7826 12.2659Z" fill="black"></path>
<path d="M39.5253 14.1765C39.5253 10.924 37.2508 8.60397 34.0664 8.60397H28.1982V24.5256H30.8139V19.7491H33.3841L36.2955 24.5256H39.2751L36.1363 19.3852C38.1833 18.6118 39.5253 16.6558 39.5253 14.1765ZM33.9072 10.9467C35.6359 10.9467 36.9096 12.3114 36.9096 14.1765C36.9096 16.0416 35.6359 17.4064 33.9072 17.4064H30.8139V10.9467H33.9072Z" fill="black"></path>
<path d="M68.8669 24.5256V17.793H75.4402V24.5256H78.0559V8.60397H75.4402V15.4503H68.8669V8.60397H66.2512V24.5256H68.8669Z" fill="black"></path>
<path d="M114.856 24.5256V11.0605H119.496V8.60397H107.623V11.0605H112.241V24.5256H114.856Z" fill="black"></path>
<path d="M133.167 15.4503L128.891 8.60397H125.866L131.825 18.1342L128.663 24.5256H131.529L139.422 8.60397H136.556L133.167 15.4503Z" fill="black"></path>
<path d="M146.121 8.60397V24.5256H148.737V19.7491H151.99C155.174 19.7491 157.448 17.4291 157.448 14.1765C157.448 10.924 155.174 8.60397 151.99 8.60397H146.121ZM148.737 17.4064V10.9467H151.83C153.559 10.9467 154.833 12.3114 154.833 14.1765C154.833 16.0416 153.559 17.4064 151.83 17.4064H148.737Z" fill="black"></path>
<path d="M174.03 24.5256V22.1828H167.456V17.793H174.03V15.4503H167.456V10.9467H174.03V8.60397H164.841V24.5256H174.03Z" fill="black"></path>
<path d="M52.559 24.6634C56.8949 24.6634 58.5619 22.3493 58.5619 18.8895H55.9104C55.9104 21.1791 55.1875 22.3493 52.5814 22.3493C49.0992 22.3493 48.5551 20.0129 48.5551 16.4183C48.5551 12.8237 49.0992 10.4872 52.5814 10.4872C55.1875 10.4872 55.9104 12.0384 55.9104 13.947L58.5619 13.947C58.7412 10.4872 56.8949 8.17316 52.559 8.17316C47.4367 8.17316 45.8367 11.6105 45.8367 16.4183C45.8367 21.226 47.4367 24.6634 52.559 24.6634Z" fill="black"></path>
<path fill-rule="evenodd" clip-rule="evenodd" d="M88.337 21.562H100.768V24.1961H88.337V21.562Z" fill="black"></path>
<path fill-rule="evenodd" clip-rule="evenodd" d="M88.337 14.9767H100.768V17.6107H88.337V14.9767Z" fill="black"></path>
<path fill-rule="evenodd" clip-rule="evenodd" d="M88.337 8.39252H100.768V11.0265H88.337V8.39252Z" fill="black"></path>
</svg>