<svg width="190" height="45" viewBox="0 0 190 45" fill="none" xmlns="http://www.w3.org/2000/svg">
<path d="M14.1167 31.4709C13.008 31.4709 12.0414 31.2588 11.217 30.8487C10.3926 30.4386 9.75291 29.8446 9.28384 29.081C8.81477 28.3173 8.58734 27.4264 8.58734 26.3941V19.0122C8.58734 17.9658 8.81477 17.0749 9.28384 16.3112C9.7387 15.5617 10.3926 14.9678 11.217 14.5577C12.0414 14.1476 13.008 13.9355 14.1167 13.9355C15.2254 13.9355 16.192 14.1476 17.0164 14.5718C17.8409 14.9961 18.4805 15.5759 18.9354 16.3254C19.3902 17.0749 19.6177 17.9658 19.6177 19.0122H16.5616C16.5616 18.2345 16.3484 17.6405 15.9219 17.2304C15.4955 16.8203 14.8985 16.6082 14.1309 16.6082C13.3491 16.6082 12.7379 16.8203 12.3115 17.2304C11.8851 17.6405 11.6719 18.2345 11.6719 18.9981V26.4082C11.6719 27.186 11.8851 27.78 12.3115 28.1901C12.7379 28.6002 13.3491 28.8123 14.1309 28.8123C14.8985 28.8123 15.4955 28.6002 15.9219 28.1901C16.3484 27.78 16.5616 27.186 16.5616 26.4082H19.6177C19.6177 27.4406 19.3902 28.3315 18.9354 29.081C18.4805 29.8305 17.8409 30.4244 17.0164 30.8487C16.192 31.2588 15.2254 31.4709 14.1167 31.4709Z" fill="black"></path>
<path d="M23.6688 31.2302V14.1756H26.7248V28.5009H33.9315V31.2302H23.6688Z" fill="black"></path>
<path d="M38.0109 31.2302V14.1756H48.3447V16.8342H40.9959V21.1615H47.5345V23.707H40.9959V28.5716H48.3447V31.2302H38.0109Z" fill="black"></path>
<path d="M52.4243 31.2303L56.7312 14.1616H60.6543L64.9755 31.2303H61.8483L60.9386 27.1434H56.4753L55.5656 31.2303H52.4243ZM57.0155 24.6828H60.3701L59.3893 20.2C59.2329 19.4646 59.0908 18.8 58.9628 18.1777C58.8349 17.5555 58.7496 17.1171 58.707 16.8343C58.6643 17.1171 58.5791 17.5555 58.4653 18.1636C58.3516 18.7717 58.2095 19.4363 58.0247 20.1717L57.0155 24.6828Z" fill="black"></path>
<path d="M69.0551 31.2302V14.1756H72.7508L77.4557 27.8504C77.4131 27.3413 77.3562 26.7333 77.2994 26.0403C77.2425 25.3474 77.1999 24.6403 77.1714 23.9191C77.143 23.1979 77.1288 22.5757 77.1288 22.0524V14.1756H79.8722V31.2444H76.1764L71.5283 17.5696C71.5568 18.0221 71.5994 18.5736 71.6421 19.2241C71.6847 19.8746 71.7273 20.5393 71.7558 21.2039C71.7842 21.8827 71.7984 22.505 71.7984 23.0565V31.2444H69.0551V31.2302Z" fill="black"></path>
<path d="M98.237 31.471C97.1283 31.471 96.1617 31.2589 95.3373 30.8488C94.5129 30.4387 93.8732 29.8448 93.4041 29.0811C92.9351 28.3175 92.7076 27.4266 92.7076 26.3942V19.0124C92.7076 17.9659 92.9351 17.075 93.4041 16.3114C93.859 15.5619 94.5129 14.9679 95.3373 14.5578C96.1617 14.1477 97.1283 13.9356 98.237 13.9356C99.3457 13.9356 100.312 14.1477 101.137 14.572C101.961 14.9962 102.601 15.576 103.056 16.3255C103.511 17.075 103.738 17.9659 103.738 19.0124H100.682C100.682 18.2346 100.469 17.6407 100.042 17.2306C99.6158 16.8205 99.0188 16.6083 98.2512 16.6083C97.4694 16.6083 96.8582 16.8205 96.4318 17.2306C96.0054 17.6407 95.7922 18.2346 95.7922 18.9983V26.4084C95.7922 27.1862 96.0054 27.7801 96.4318 28.1902C96.8582 28.6003 97.4694 28.8124 98.2512 28.8124C99.0188 28.8124 99.6158 28.6003 100.042 28.1902C100.469 27.7801 100.682 27.1862 100.682 26.4084H103.738C103.738 27.4407 103.511 28.3316 103.056 29.0811C102.601 29.8306 101.961 30.4246 101.137 30.8488C100.312 31.2589 99.3457 31.471 98.237 31.471Z" fill="black"></path>
<path d="M107.206 31.2303L111.513 14.1616H115.436L119.758 31.2303H116.63L115.721 27.1434H111.257L110.348 31.2303H107.206ZM111.783 24.6828H115.138L114.157 20.2C114.001 19.4646 113.859 18.8 113.731 18.1777C113.603 17.5555 113.517 17.1171 113.475 16.8343C113.432 17.1171 113.347 17.5555 113.233 18.1636C113.119 18.7717 112.977 19.4363 112.793 20.1717L111.783 24.6828Z" fill="black"></path>
<path d="M123.823 31.2302V14.1756H127.518L132.223 27.8504C132.181 27.3413 132.124 26.7333 132.067 26.0403C132.01 25.3474 131.968 24.6403 131.939 23.9191C131.911 23.1979 131.896 22.5757 131.896 22.0524V14.1756H134.64V31.2444H130.944L126.296 17.5696C126.324 18.0221 126.367 18.5736 126.41 19.2241C126.452 19.8746 126.495 20.5393 126.523 21.2039C126.552 21.8827 126.566 22.505 126.566 23.0565V31.2444H123.823V31.2302Z" fill="black"></path>
<path d="M143.041 31.2303L138.719 14.1616H141.875L144.434 25.2202C144.562 25.7293 144.689 26.2949 144.803 26.9172C144.931 27.5394 145.016 28.0343 145.087 28.4303C145.144 28.0343 145.23 27.5394 145.343 26.9172C145.457 26.2949 145.571 25.7293 145.699 25.2061L148.172 14.1757H151.271L146.964 31.2445H143.041V31.2303Z" fill="black"></path>
<path d="M152.493 31.2303L156.8 14.1616H160.723L165.044 31.2303H161.917L161.007 27.1434H156.544L155.634 31.2303H152.493ZM157.084 24.6828H160.439L159.458 20.2C159.302 19.4646 159.16 18.8 159.032 18.1777C158.904 17.5555 158.818 17.1171 158.776 16.8343C158.733 17.1171 158.648 17.5555 158.534 18.1636C158.42 18.7717 158.278 19.4363 158.094 20.1717L157.084 24.6828Z" fill="black"></path>
<path d="M174.156 31.471C172.99 31.471 171.981 31.2731 171.114 30.8771C170.247 30.4811 169.564 29.9155 169.095 29.1943C168.612 28.473 168.385 27.6104 168.385 26.6347H171.441C171.441 27.2993 171.697 27.8367 172.194 28.2326C172.692 28.6286 173.374 28.8266 174.213 28.8266C175.023 28.8266 175.662 28.6286 176.146 28.2326C176.615 27.8367 176.856 27.2993 176.856 26.6347C176.856 26.0831 176.7 25.6165 176.373 25.1922C176.046 24.7821 175.606 24.4993 175.023 24.3579L173.004 23.8205C171.654 23.4811 170.602 22.8589 169.863 21.968C169.11 21.0771 168.74 20.0023 168.74 18.7578C168.74 17.2871 169.223 16.1275 170.204 15.2508C171.185 14.374 172.507 13.9356 174.184 13.9356C175.861 13.9356 177.198 14.3599 178.178 15.2083C179.159 16.0568 179.657 17.2023 179.657 18.6589H176.601C176.601 18.0225 176.387 17.5134 175.961 17.1457C175.534 16.778 174.923 16.5801 174.141 16.5801C173.402 16.5801 172.82 16.7639 172.407 17.1457C171.981 17.5134 171.768 18.0366 171.768 18.7154C171.768 19.2104 171.924 19.6629 172.251 20.0447C172.578 20.4407 173.033 20.6952 173.63 20.8366L175.648 21.4023C177.027 21.7417 178.079 22.3639 178.818 23.2548C179.557 24.1458 179.927 25.2488 179.927 26.5498C179.927 27.5256 179.685 28.3882 179.216 29.1377C178.733 29.873 178.079 30.4529 177.212 30.863C176.316 31.2589 175.321 31.471 174.156 31.471Z" fill="black"></path>
</svg>