<svg width="195" height="44" viewBox="0 0 195 44" fill="none" xmlns="http://www.w3.org/2000/svg">
<path fill-rule="evenodd" clip-rule="evenodd" d="M14.0799 37.3573C22.5653 45.8836 36.354 45.8836 44.9018 37.3573C53.4495 28.831 53.3871 14.9759 44.9018 6.38689C36.4164 -2.13938 22.6277 -2.13938 14.0799 6.44958C5.59452 14.9759 5.59452 28.831 14.0799 37.3573ZM35.2933 21.4333L29.0541 15.1639L27.8062 16.4178C27.6191 16.6059 27.2447 16.6059 27.0575 16.4178C26.9327 16.2924 26.8703 16.167 26.8703 16.0416V11.1516C26.8703 10.8381 27.1199 10.5873 27.4319 10.5873H32.2985C32.6105 10.5873 32.86 10.8381 32.86 11.1516C32.86 11.277 32.7976 11.465 32.6728 11.5277L31.425 12.7816L39.0993 20.4929C39.6608 21.0571 39.6608 21.8721 39.0993 22.4363L30.9259 30.5865C30.3643 31.1507 29.5532 31.1507 28.9917 30.5865L23.6883 25.2575L15.3277 33.7211C9.33807 26.4487 9.71242 15.6655 16.4508 8.89462C23.6259 1.6849 35.2933 1.6849 42.4685 8.89462C49.6436 16.1043 49.6436 27.828 42.4685 35.0377C35.6677 41.8712 24.9362 42.2474 17.7611 36.1661L20.1944 33.7211C26.0592 38.4231 34.6694 38.0469 40.0976 32.5926C45.9624 26.6995 45.9624 17.1701 40.0976 11.3397C34.2327 5.44649 24.749 5.44649 18.9465 11.3397C14.3919 15.9163 13.3936 22.8125 15.9517 28.3295L23.7507 20.4929L29.99 26.7622L35.2933 21.4333ZM67.1759 21.4333C68.1118 21.4333 68.7981 21.1825 69.2972 20.6809C69.8587 20.1794 70.1083 19.4898 70.1083 18.6748C70.1083 17.797 69.8587 17.1074 69.2972 16.6059C68.7981 16.1043 68.0494 15.8536 67.1759 15.8536H64.3058V21.3706H67.1759V21.4333ZM64.2434 24.6933V31.9657H60.5623V12.6562H67.6126C68.1118 12.6562 68.5485 12.7189 68.9853 12.7816C69.3596 12.8443 69.734 12.9697 70.1083 13.0951C70.857 13.4085 71.5433 13.7847 72.0425 14.3489C72.604 14.8505 72.9784 15.5401 73.2903 16.2297C73.6023 16.982 73.7271 17.7344 73.7271 18.6121C73.7271 19.4898 73.6023 20.3048 73.2903 21.0571C72.9784 21.8094 72.604 22.4363 72.0425 22.9379C71.481 23.4394 70.857 23.8783 70.1083 24.1917C69.3596 24.5052 68.4861 24.6306 67.6126 24.6306H64.2434V24.6933ZM75.5989 31.9657V18.5494H79.1552V31.9657H75.5989ZM75.1621 14.1608C75.1621 13.722 75.2245 13.4085 75.4117 13.0324C75.5365 12.8443 75.6612 12.6562 75.786 12.5308C75.9732 12.3427 76.1604 12.2174 76.3476 12.092C76.6595 11.9039 76.9715 11.8412 77.3458 11.8412C77.6578 11.8412 77.9698 11.9039 78.2193 12.0293C78.4689 12.1547 78.7185 12.28 78.9057 12.5308C79.3424 12.9697 79.5296 13.4712 79.5296 14.1608C79.5296 14.7878 79.3424 15.2893 78.9057 15.7282C78.5313 16.167 77.9698 16.3551 77.3458 16.3551C76.7219 16.3551 76.2228 16.167 75.786 15.7282C75.4117 15.2893 75.1621 14.7878 75.1621 14.1608ZM85.2073 25.2575L80.5903 18.6121H84.7705C84.8953 18.8001 85.0825 19.0509 85.3321 19.4271L86.0808 20.5555L86.8295 21.7467C87.0791 22.1229 87.2662 22.3736 87.391 22.5617L89.9491 18.6121H93.9422L89.3876 25.1948L94.1294 32.0284H90.0115L87.2662 27.8906L86.7047 28.7057L85.8936 29.9595C85.5816 30.3984 85.3321 30.7745 85.0825 31.1507L84.7082 31.7149L84.521 31.9657H80.5279L85.2073 25.2575ZM103.364 23.7529C103.364 23.4394 103.301 23.126 103.176 22.8125C103.052 22.499 102.864 22.1856 102.677 21.9975C102.428 21.7467 102.116 21.5586 101.741 21.3706C101.367 21.1825 100.993 21.1198 100.493 21.1198C100.057 21.1198 99.6199 21.1825 99.2456 21.3706C98.8712 21.5586 98.6217 21.7467 98.3721 21.9975C98.1225 22.2483 97.9354 22.5617 97.8106 22.8125C97.6858 23.126 97.6234 23.4394 97.6234 23.7529H103.364ZM106.608 28.1414C106.421 28.7057 106.171 29.2699 105.859 29.7714C105.547 30.273 105.11 30.7118 104.611 31.088C104.112 31.4642 103.551 31.7776 102.864 31.9657C102.24 32.2165 101.492 32.3419 100.681 32.3419C99.7447 32.3419 98.9336 32.2165 98.1225 31.903C97.3114 31.5895 96.6251 31.088 96.0012 30.4611C95.3773 29.8341 94.8781 29.0818 94.5038 28.2041C94.1294 27.3264 93.9422 26.3233 93.9422 25.1948C93.9422 24.1291 94.1294 23.126 94.5038 22.311C94.8781 21.4333 95.3149 20.6809 95.9388 20.1167C96.5627 19.4898 97.249 19.0509 97.9977 18.6748C98.7465 18.3613 99.5576 18.1732 100.431 18.1732C101.492 18.1732 102.428 18.3613 103.239 18.6748C103.987 18.9882 104.674 19.4271 105.173 20.054C105.797 20.7436 106.234 21.4959 106.483 22.4363C106.733 23.2514 106.857 24.1291 106.857 25.1321C106.857 25.3829 106.857 25.6337 106.857 25.8845V26.2606H97.4986C97.4986 26.6995 97.6234 27.0756 97.8106 27.5145C97.9977 27.8906 98.2473 28.2041 98.4969 28.4549C98.6217 28.5803 98.7465 28.7057 98.9336 28.7684C99.1208 28.8937 99.308 29.0191 99.5576 29.0818C99.9319 29.2072 100.369 29.2699 100.805 29.2699C101.617 29.2699 102.303 29.0818 102.74 28.7057C103.239 28.3295 103.551 27.828 103.8 27.2637L106.608 28.1414ZM108.792 31.9657V12.28H112.348V31.9657H108.792ZM128.383 32.4046C128.133 32.4046 127.884 32.4046 127.634 32.4046C126.885 32.3419 126.199 32.2165 125.575 31.9657C125.138 31.8403 124.764 31.6522 124.39 31.4015C124.015 31.1507 123.641 30.8999 123.267 30.5865C122.643 29.9595 122.144 29.2072 121.707 28.3295C121.333 27.4518 121.145 26.386 121.145 25.1948V12.6562H124.826V24.8187C124.826 26.0725 125.138 27.0756 125.762 27.7026C126.386 28.3295 127.26 28.7057 128.383 28.7057C128.882 28.7057 129.319 28.643 129.756 28.5176C130.255 28.3295 130.691 28.0787 131.003 27.7653C131.627 27.1383 131.939 26.1352 131.939 24.8814V12.6562H135.62V25.1321C135.62 25.5083 135.62 25.8218 135.558 26.1979C135.496 26.9503 135.308 27.6399 135.059 28.2668C134.685 29.1445 134.185 29.9595 133.499 30.5238C132.875 31.1507 132.126 31.5895 131.191 31.903C130.317 32.2165 129.381 32.4046 128.383 32.4046ZM142.047 31.9657H138.49V18.5494H141.922V20.1794L142.109 19.9286C142.484 19.3644 142.983 18.9882 143.544 18.6748C144.231 18.3613 144.979 18.1732 145.666 18.1732C145.978 18.1732 146.29 18.1732 146.539 18.2359C146.976 18.2986 147.413 18.424 147.787 18.6121C148.099 18.7374 148.411 18.9255 148.66 19.1136C148.91 19.3017 149.097 19.4898 149.284 19.7405C149.659 20.2421 149.971 20.7436 150.158 21.4333C150.345 22.0602 150.47 22.7498 150.47 23.5021V31.9657H146.913V24.1291C146.913 23.6902 146.851 23.314 146.726 23.0006C146.601 22.6871 146.477 22.4363 146.29 22.2483C145.915 21.7467 145.291 21.4959 144.48 21.4959C143.731 21.4959 143.107 21.7467 142.671 22.311C142.234 22.8125 142.047 23.5021 142.047 24.2544V31.9657ZM153.215 31.9657V18.5494H156.771V31.9657H153.215ZM152.778 14.1608C152.778 13.5339 152.965 12.9697 153.402 12.5308C153.839 12.092 154.338 11.9039 154.962 11.9039C155.586 11.9039 156.085 12.092 156.522 12.5308C156.959 12.9697 157.146 13.4712 157.146 14.1608C157.146 14.3489 157.146 14.537 157.083 14.6624C157.021 15.0385 156.771 15.4147 156.522 15.6655C156.148 16.1043 155.586 16.2924 154.962 16.2924C154.338 16.2924 153.839 16.1043 153.402 15.6655C153.028 15.2893 152.778 14.7878 152.778 14.1608ZM165.569 29.0818C166.006 29.0818 166.38 29.0191 166.817 28.831C167.004 28.7684 167.253 28.643 167.441 28.5176C167.628 28.3922 167.753 28.2668 167.877 28.1414C168.189 27.828 168.439 27.3891 168.564 26.9503C168.626 26.7622 168.688 26.5114 168.751 26.2606C168.813 25.9472 168.813 25.6337 168.813 25.2575C168.813 24.6306 168.688 24.0664 168.501 23.6275C168.439 23.5021 168.376 23.314 168.314 23.1887C168.189 22.9379 168.002 22.6871 167.815 22.4363C167.69 22.311 167.565 22.1856 167.441 22.0602C167.253 21.8721 167.004 21.7467 166.754 21.684C166.317 21.4959 165.943 21.4333 165.506 21.4333C165.257 21.4333 165.07 21.4333 164.82 21.4959C164.633 21.5586 164.446 21.6213 164.259 21.684C163.884 21.8721 163.51 22.1229 163.198 22.4363C162.886 22.7498 162.636 23.126 162.449 23.6275C162.262 24.1291 162.2 24.6306 162.2 25.2575C162.2 25.8845 162.262 26.4487 162.449 26.8876C162.636 27.3891 162.886 27.7653 163.198 28.0787C163.51 28.3922 163.822 28.643 164.259 28.7684C164.758 29.0191 165.132 29.0818 165.569 29.0818ZM165.569 18.1732C166.567 18.1732 167.441 18.3613 168.252 18.7374C169.125 19.0509 169.811 19.5525 170.435 20.1794C171.059 20.8063 171.558 21.5586 171.87 22.4363C172.245 23.314 172.432 24.2544 172.432 25.3202C172.432 26.3233 172.245 27.3264 171.87 28.2041C171.558 29.0818 171.059 29.7714 170.435 30.4611C169.811 31.088 169.125 31.5895 168.252 31.9657C167.441 32.2792 166.505 32.4673 165.569 32.4673C164.57 32.4673 163.697 32.2792 162.824 31.9657C162.012 31.5895 161.264 31.088 160.64 30.4611C160.016 29.8341 159.579 29.0818 159.205 28.2041C158.893 27.3264 158.706 26.386 158.706 25.3202C158.706 24.3171 158.893 23.314 159.205 22.4363C159.392 21.9975 159.579 21.6213 159.829 21.2452C160.078 20.869 160.328 20.4929 160.64 20.1794C161.264 19.5525 162.012 19.0509 162.824 18.7374C163.697 18.3613 164.633 18.1732 165.569 18.1732ZM177.922 31.9657H174.366V18.5494H177.798V20.1794C177.985 19.8659 178.234 19.5525 178.484 19.3017C178.734 19.0509 179.108 18.8001 179.42 18.6748C180.106 18.3613 180.855 18.1732 181.541 18.1732C181.978 18.1732 182.415 18.2359 182.789 18.2986C183.101 18.3613 183.351 18.4867 183.6 18.6121C184.224 18.8628 184.723 19.239 185.098 19.7405C185.472 20.2421 185.784 20.7436 185.971 21.4333C186.158 22.0602 186.283 22.7498 186.283 23.5021V31.9657H182.727V24.1291C182.727 23.7529 182.664 23.4394 182.602 23.126C182.477 22.8125 182.352 22.499 182.165 22.2483C181.791 21.7467 181.167 21.4959 180.356 21.4959C179.607 21.4959 178.983 21.7467 178.546 22.311C178.359 22.5617 178.172 22.8752 178.047 23.1887C177.922 23.5021 177.922 23.8783 177.922 24.2544V31.9657Z" fill="black"></path>
</svg>