<svg width="184" height="44" viewBox="0 0 184 44" fill="none" xmlns="http://www.w3.org/2000/svg">
<g clip-path="url(#clip0_589_318)">
<path d="M39.633 10.1636V8.2747H49.557V10.1636H45.7125V20.7132H43.4775V10.1636H39.633ZM51.4702 20.7132V8.2747H53.7234V13.5404H59.4872V8.2747H61.7465V20.7132H59.4872V15.4292H53.7234V20.7132H51.4702ZM64.1971 20.7132V8.2747H72.287V10.1636H66.4504V13.5404H71.8679V15.4292H66.4504V18.8243H72.3356V20.7132H64.1971ZM74.5858 8.2747H77.3431L81.0358 17.2877H81.1816L84.8742 8.2747H87.6316V20.7132H85.4694V12.1678H85.354L81.9165 20.6767H80.3009L76.8633 12.1496H76.7479V20.7132H74.5858V8.2747ZM90.0853 20.7132V8.2747H98.1751V10.1636H92.3385V13.5404H97.7561V15.4292H92.3385V18.8243H98.2237V20.7132H90.0853ZM112.557 8.2747H114.81V16.401C114.81 17.2918 114.6 18.0753 114.179 18.7514C113.762 19.4276 113.175 19.956 112.417 20.3366C111.66 20.7132 110.776 20.9014 109.763 20.9014C108.747 20.9014 107.86 20.7132 107.103 20.3366C106.346 19.956 105.759 19.4276 105.342 18.7514C104.925 18.0753 104.716 17.2918 104.716 16.401V8.2747H106.97V16.2127C106.97 16.731 107.083 17.1926 107.31 17.5975C107.54 18.0024 107.864 18.3202 108.281 18.551C108.698 18.7778 109.192 18.8911 109.763 18.8911C110.334 18.8911 110.828 18.7778 111.245 18.551C111.666 18.3202 111.99 18.0024 112.217 17.5975C112.444 17.1926 112.557 16.731 112.557 16.2127V8.2747ZM117.259 20.7132V8.2747H121.924C122.879 8.2747 123.681 8.45286 124.329 8.80917C124.981 9.16548 125.473 9.65541 125.805 10.2789C126.141 10.8984 126.309 11.603 126.309 12.3925C126.309 13.1902 126.141 13.8987 125.805 14.5182C125.469 15.1377 124.973 15.6256 124.317 15.9819C123.661 16.3342 122.853 16.5103 121.894 16.5103H118.802V14.6579H121.59C122.149 14.6579 122.606 14.5607 122.962 14.3664C123.319 14.172 123.582 13.9048 123.752 13.5647C123.926 13.2246 124.013 12.8339 124.013 12.3925C124.013 11.9512 123.926 11.5625 123.752 11.2264C123.582 10.8903 123.317 10.6292 122.956 10.4429C122.6 10.2526 122.141 10.1575 121.578 10.1575H119.513V20.7132H117.259ZM132.481 20.7132H128.266V8.2747H132.566C133.801 8.2747 134.862 8.52372 135.749 9.02174C136.639 9.51572 137.324 10.2263 137.801 11.1535C138.279 12.0807 138.518 13.1902 138.518 14.4818C138.518 15.7775 138.277 16.8909 137.795 17.8222C137.318 18.7535 136.627 19.4681 135.724 19.9661C134.825 20.4642 133.744 20.7132 132.481 20.7132ZM130.519 18.7636H132.372C133.238 18.7636 133.961 18.6057 134.54 18.2899C135.119 17.97 135.554 17.4942 135.846 16.8626C136.137 16.2269 136.283 15.4333 136.283 14.4818C136.283 13.5303 136.137 12.7407 135.846 12.1131C135.554 11.4815 135.123 11.0098 134.552 10.698C133.985 10.3822 133.281 10.2243 132.439 10.2243H130.519V18.7636ZM141.588 20.7132H139.183L143.562 8.2747H146.344L150.729 20.7132H148.324L145.002 10.8256H144.904L141.588 20.7132ZM141.667 15.8362H148.227V17.6461H141.667V15.8362ZM150.317 10.1636V8.2747H160.241V10.1636H156.397V20.7132H154.162V10.1636H150.317ZM162.155 20.7132V8.2747H170.244V10.1636H164.408V13.5404H169.825V15.4292H164.408V18.8243H170.293V20.7132H162.155ZM172.543 20.7132V8.2747H177.208C178.163 8.2747 178.965 8.44071 179.613 8.77273C180.265 9.10475 180.757 9.57038 181.089 10.1696C181.425 10.7648 181.593 11.4592 181.593 12.2528C181.593 13.0505 181.423 13.7428 181.083 14.33C180.746 14.913 180.25 15.3645 179.595 15.6843C178.939 16.0002 178.133 16.1581 177.177 16.1581H173.855V14.2874H176.874C177.432 14.2874 177.89 14.2105 178.246 14.0566C178.603 13.8987 178.866 13.67 179.036 13.3703C179.21 13.0667 179.297 12.6942 179.297 12.2528C179.297 11.8115 179.21 11.4349 179.036 11.1232C178.862 10.8073 178.596 10.5685 178.24 10.4065C177.884 10.2405 177.424 10.1575 176.861 10.1575H174.796V20.7132H172.543ZM178.969 15.077L182.048 20.7132H179.534L176.509 15.077H178.969ZM41.7769 37.7132H39.3718L43.7508 25.2747H46.5324L50.9175 37.7132H48.5124L45.1902 27.8256H45.093L41.7769 37.7132ZM41.8559 32.8362H48.4152V34.6461H41.8559V32.8362ZM52.5558 37.7132V25.2747H57.2202C58.1758 25.2747 58.9775 25.4529 59.6253 25.8092C60.2772 26.1655 60.7692 26.6554 61.1012 27.2789C61.4372 27.8984 61.6053 28.603 61.6053 29.3925C61.6053 30.1902 61.4372 30.8987 61.1012 31.5182C60.7651 32.1377 60.2691 32.6256 59.6132 32.9819C58.9572 33.3342 58.1495 33.5103 57.1899 33.5103H54.0985V31.6579H56.8862C57.4449 31.6579 57.9025 31.5607 58.2588 31.3664C58.6151 31.172 58.8783 30.9048 59.0483 30.5647C59.2224 30.2246 59.3095 29.8339 59.3095 29.3925C59.3095 28.9512 59.2224 28.5625 59.0483 28.2264C58.8783 27.8903 58.6131 27.6292 58.2527 27.4429C57.8964 27.2526 57.4368 27.1575 56.874 27.1575H54.8091V37.7132H52.5558ZM63.5624 37.7132V25.2747H68.2269C69.1824 25.2747 69.9841 25.4529 70.632 25.8092C71.2838 26.1655 71.7758 26.6554 72.1078 27.2789C72.4439 27.8984 72.6119 28.603 72.6119 29.3925C72.6119 30.1902 72.4439 30.8987 72.1078 31.5182C71.7717 32.1377 71.2757 32.6256 70.6198 32.9819C69.9639 33.3342 69.1561 33.5103 68.1965 33.5103H65.1051V31.6579H67.8928C68.4516 31.6579 68.9091 31.5607 69.2654 31.3664C69.6217 31.172 69.8849 30.9048 70.055 30.5647C70.2291 30.2246 70.3161 29.8339 70.3161 29.3925C70.3161 28.9512 70.2291 28.5625 70.055 28.2264C69.8849 27.8903 69.6197 27.6292 69.2594 27.4429C68.903 27.2526 68.4435 27.1575 67.8807 27.1575H65.8157V37.7132H63.5624ZM81.0647 25.2747V37.7132H78.8114V25.2747H81.0647ZM98.8614 31.4939C98.8614 32.8341 98.6104 33.982 98.1083 34.9376C97.6103 35.8891 96.9301 36.6179 96.0676 37.124C95.2093 37.6302 94.2355 37.8832 93.1463 37.8832C92.0571 37.8832 91.0813 37.6302 90.2189 37.124C89.3605 36.6139 88.6803 35.883 88.1782 34.9315C87.6802 33.976 87.4312 32.8301 87.4312 31.4939C87.4312 30.1537 87.6802 29.0079 88.1782 28.0564C88.6803 27.1008 89.3605 26.37 90.2189 25.8638C91.0813 25.3577 92.0571 25.1046 93.1463 25.1046C94.2355 25.1046 95.2093 25.3577 96.0676 25.8638C96.9301 26.37 97.6103 27.1008 98.1083 28.0564C98.6104 29.0079 98.8614 30.1537 98.8614 31.4939ZM96.596 31.4939C96.596 30.5505 96.4482 29.7549 96.1527 29.1071C95.8611 28.4552 95.4562 27.9632 94.938 27.6312C94.4197 27.2951 93.8225 27.1271 93.1463 27.1271C92.4701 27.1271 91.8729 27.2951 91.3546 27.6312C90.8364 27.9632 90.4294 28.4552 90.1339 29.1071C89.8423 29.7549 89.6966 30.5505 89.6966 31.4939C89.6966 32.4373 89.8423 33.235 90.1339 33.8869C90.4294 34.5347 90.8364 35.0267 91.3546 35.3627C91.8729 35.6947 92.4701 35.8608 93.1463 35.8608C93.8225 35.8608 94.4197 35.6947 94.938 35.3627C95.4562 35.0267 95.8611 34.5347 96.1527 33.8869C96.4482 33.235 96.596 32.4373 96.596 31.4939ZM112.106 31.4939C112.106 32.8341 111.855 33.982 111.353 34.9376C110.855 35.8891 110.175 36.6179 109.312 37.124C108.454 37.6302 107.48 37.8832 106.391 37.8832C105.302 37.8832 104.326 37.6302 103.464 37.124C102.605 36.6139 101.925 35.883 101.423 34.9315C100.925 33.976 100.676 32.8301 100.676 31.4939C100.676 30.1537 100.925 29.0079 101.423 28.0564C101.925 27.1008 102.605 26.37 103.464 25.8638C104.326 25.3577 105.302 25.1046 106.391 25.1046C107.48 25.1046 108.454 25.3577 109.312 25.8638C110.175 26.37 110.855 27.1008 111.353 28.0564C111.855 29.0079 112.106 30.1537 112.106 31.4939ZM109.841 31.4939C109.841 30.5505 109.693 29.7549 109.397 29.1071C109.106 28.4552 108.701 27.9632 108.183 27.6312C107.664 27.2951 107.067 27.1271 106.391 27.1271C105.715 27.1271 105.118 27.2951 104.599 27.6312C104.081 27.9632 103.674 28.4552 103.379 29.1071C103.087 29.7549 102.941 30.5505 102.941 31.4939C102.941 32.4373 103.087 33.235 103.379 33.8869C103.674 34.5347 104.081 35.0267 104.599 35.3627C105.118 35.6947 105.715 35.8608 106.391 35.8608C107.067 35.8608 107.664 35.6947 108.183 35.3627C108.701 35.0267 109.106 34.5347 109.397 33.8869C109.693 33.235 109.841 32.4373 109.841 31.4939ZM113.139 27.1636V25.2747H123.063V27.1636H119.218V37.7132H116.983V27.1636H113.139ZM131.736 28.6941C131.679 28.1637 131.44 27.7507 131.019 27.4551C130.602 27.1595 130.059 27.0117 129.391 27.0117C128.922 27.0117 128.519 27.0826 128.183 27.2243C127.847 27.366 127.589 27.5583 127.411 27.8013C127.233 28.0442 127.142 28.3216 127.138 28.6333C127.138 28.8925 127.197 29.1172 127.314 29.3075C127.436 29.4978 127.6 29.6597 127.806 29.7934C128.013 29.9229 128.241 30.0323 128.492 30.1213C128.743 30.2104 128.996 30.2853 129.252 30.3461L130.418 30.6376C130.887 30.7469 131.339 30.8947 131.772 31.0809C132.209 31.2672 132.6 31.502 132.944 31.7855C133.292 32.0689 133.568 32.411 133.77 32.8119C133.973 33.2127 134.074 33.6824 134.074 34.2209C134.074 34.9497 133.888 35.5915 133.515 36.1462C133.143 36.6969 132.604 37.1281 131.9 37.4399C131.199 37.7476 130.351 37.9014 129.355 37.9014C128.387 37.9014 127.547 37.7516 126.834 37.452C126.126 37.1524 125.571 36.7151 125.17 36.1401C124.773 35.5652 124.559 34.8647 124.526 34.0387H126.743C126.776 34.472 126.909 34.8323 127.144 35.1198C127.379 35.4073 127.685 35.6219 128.061 35.7636C128.442 35.9053 128.867 35.9762 129.337 35.9762C129.827 35.9762 130.256 35.9033 130.624 35.7575C130.997 35.6077 131.288 35.4012 131.499 35.138C131.709 34.8708 131.817 34.559 131.821 34.2027C131.817 33.8788 131.721 33.6116 131.535 33.401C131.349 33.1864 131.088 33.0083 130.752 32.8665C130.42 32.7208 130.031 32.5912 129.586 32.4778L128.17 32.1134C127.146 31.8502 126.336 31.4514 125.741 30.917C125.15 30.3784 124.854 29.6638 124.854 28.773C124.854 28.0402 125.053 27.3984 125.45 26.8477C125.85 26.2971 126.395 25.8699 127.083 25.5662C127.772 25.2585 128.551 25.1046 129.422 25.1046C130.304 25.1046 131.078 25.2585 131.742 25.5662C132.41 25.8699 132.934 26.293 133.315 26.8356C133.695 27.3741 133.892 27.9936 133.904 28.6941H131.736Z" fill="black"></path>
<path d="M11.4845 22.0354C11.8288 24.8534 13.8568 27.2795 16.5214 28.1502C19.4527 29.1081 22.9825 28.1116 24.8044 25.6143L28.599 29.2489C25.4332 33.199 20.0976 34.6313 15.3512 33.3201C10.3053 31.9261 6.54286 27.3968 6.15713 22.1104H3.11609L8.71311 16.3575L14.4987 22.0437L11.4845 22.0354Z" fill="black" stroke="black" stroke-width="0.118124" stroke-miterlimit="10"></path>
<path d="M26.2611 20.0686C25.9222 17.2532 23.898 14.8257 21.2337 13.9509C18.3027 12.9881 14.7691 13.9767 12.9413 16.4673L9.15173 12.8294C12.3271 8.88984 17.6683 7.47051 22.4147 8.78956C27.4608 10.1921 31.216 14.7236 31.5919 20.0046L34.6346 20.0106L29.0233 25.7456L23.2457 20.0544L26.2615 20.0686H26.2611Z" fill="black" stroke="black" stroke-width="0.118124" stroke-miterlimit="10"></path>
</g>
<defs><clipPath id="clip0_589_318"><rect width="183.338" height="43.6272" fill="white"></rect></clipPath></defs>
</svg>